<?xml version="1.0" encoding="utf-8"?>
<!-- Generator: Adobe Illustrator 27.0.1, SVG Export Plug-In . SVG Version: 6.00 Build 0)  -->
<svg version="1.1" id="Calque_1" xmlns="http://www.w3.org/2000/svg" xmlns:xlink="http://www.w3.org/1999/xlink" x="0px" y="0px"
	 viewBox="0 0 256 256" style="enable-background:new 0 0 256 256;" xml:space="preserve">
<style type="text/css">
	.st0{fill:url(#SVGID_1_);}
	.st1{fill:url(#SVGID_00000138574474395123449580000002682685879269305510_);}
	.st2{fill:url(#SVGID_00000147930953769185879710000011601004171328576434_);}
	.st3{fill:url(#SVGID_00000143588362440211120700000017278917389242668725_);}
	.st4{fill:#FFFFFF;}
	.st5{fill:url(#SVGID_00000149378110501660271270000011976504374596200621_);}
	.st6{fill:#F94E93;}
</style>
<g>
	<g>
		<path d="M186,214.2c-1.6,4.8-3,8.6-4.1,12.5c-1.2,4.1-2.1,8.4-3.3,12.5c-1.4,4.8-3.6,9.2-9.1,10.1c-6.1,1-11.5-1.2-14.6-6.4
			c-2.8-4.7-4.6-10.1-6.8-15.3c-15.9,0-32.3,0-49.5,0c1.1,2.3,2,4.2,2.8,6.1c3.6,9-0.7,15.9-10.5,16.6c-9.6,0.7-17.6-2.2-23.6-10
			c-5.8-7.5-11.5-15-17.3-22.5c-1.5-1.9-3.2-3.7-5.1-5.8c-4.7,5.5-8.7,10.4-5.7,18c1.7,4.3,1.6,9.1-2.6,12.3c-4,3-8.5,2-12.1-0.6
			c-3.4-2.4-6.8-5.5-8.8-9.1c-7.2-13-10.8-27.1-10.5-41.9c0.3-12.6,0.5-25.2,2.1-37.6c1-7.6,4.3-14.9,7.1-22.2
			c4.1-10.8,5.7-21.9,6.1-33.5c0.3-11.8,1.1-24.2,4.8-35.2C33.8,36,53.4,21.2,80,15.6c12-2.6,24.1-3.3,35.6,2
			c6.6,3,12.1,7.1,12.4,15.3c0.3,6.7-2.5,10-9.2,10.2c-7.3,0.2-14.6-0.2-21.9,0.1c-13.1,0.5-25.8,2.5-36.1,11.8
			c-10.2,9.1-11.7,20.9-4,30.9c4.7,6.1,11.2,7.8,18.2,7.1c23.9-2.5,45.3-10.7,62.8-28c3.1-3.1,4.1-5.5,2-9.8
			c-2.3-4.7-3.7-9.9-4.7-15.1c-1.1-6,2.1-10.1,8.2-9.5c9.7,1,18.9,1.8,28.8-0.4c5.7-1.3,11.7,0,17.4-4c5.4-3.8,10.9-0.5,15.3,3.4
			c2,1.8,3.4,2.3,6,1.2c5.9-2.3,11.9-1.6,17.1,1.8c3,2,5.7,2.4,8.8,0.9c0.4-0.2,0.9-0.4,1.4-0.5c10.3-2.6,15.9,1.7,14.5,12.2
			c-0.8,5.9-3.7,11.5-5.4,17.4c-0.6,1.9-1.3,4.2-0.7,5.9c12.3,36.8,5.4,70.7-15.4,102.3c-4.5,6.8-5,13.8-6.2,21
			c-2.3,13.7-1.4,26.9,5.3,39.6c4,7.6-0.5,13.8-9.1,12.9c-12.2-1.3-20.2-9.3-27.1-18.5C191.3,222.5,189.1,218.8,186,214.2z
			 M95.8,179.8c-6,11.8-5,24-3.4,36.2c0.4,3.1,1.8,4.7,5.1,4.8c14.6,0.2,29.1,0.7,43.7,0.7c9,0,8.5-0.5,8.6-9.4
			c0.2-9.9,1.4-19.8,2.5-29.7c0.1-1.3,2.5-2.4,3.9-3.5c0.4,1.3,1.3,2.7,1,3.8c-3.6,14.4-3.6,28.9-1.7,43.4
			c0.8,5.8,1.8,11.6,6.8,15.5c4.1,3.2,8.1,2,9.7-3c0.7-2.2,0.8-4.6,1.5-6.8c2.3-7,3.9-14.5,7.4-21c7.2-13.4,15.5-26.2,23.5-39.1
			c0.8-1.2,2.7-1.7,4.1-2.5c0.5,0.5,1.1,1.1,1.6,1.6c-5.9,10.3-11.8,20.7-17.8,31.3c0.8-0.1,1.2-0.1,1.5-0.3c0.6-0.3,1.2-0.6,1.7-1
			c33.1-27.5,52.6-61.5,50-105.8c-0.8-13.2-4.1-25.9-11-37.3c-1.2-2-4.3-4-6.5-4c-10,0-18.4-3.2-24.5-10.8c-5.6,0.2-6.9,3.2-6.7,7.9
			c0.2,3,0.8,4.8,3.6,6.3c2.1,1.1,3.9,3.1,5.4,5c7,8.9,10.8,19.3,13.2,30.2c2.6,11.7,0,22.7-9.6,29.6c-19,13.7-37.6-0.9-39.9-16.5
			c-1.4-9.7,1.6-18.7,5.1-27.5c3.1-7.7,6.3-15.8,13.5-20.4c4.1-2.6,5.4-5.3,4.5-9.5c-0.3-1.4-1.5-3.5-2.6-3.7
			c-2.1-0.4-5.5-0.6-6.5,0.6c-4.6,6-10.9,8.6-17.8,8.3c-7.2-0.3-12,2.5-16.1,7.8c-1.1,1.4-2.2,3-3.5,4.2c-3.2,2.8-5.1,5.8-3.9,10.3
			c0.3,1.2-0.7,3.6-1.7,4.1c-1.3,0.6-3.3-0.3-4.9-0.5c-1.6-0.2-3.4-0.7-4.6,0c-0.7,0.3-0.5,2.8-0.3,4.2c0.4,2.8,1.4,5.5,1.5,8.2
			c0.1,1.1-1.1,3-2.1,3.4c-1,0.4-2.9-0.4-3.8-1.3c-2.1-2.3-3.8-5-5.6-7.4c-6.5,2.1-6.4,2-3.9,7.7c1.1,2.6,2.3,5.2,2.7,8
			c0.2,1.7-0.5,4.4-1.8,5.1c-1.9,1.1-4.4,1.1-5.6-2c-1.6-4.1-3.6-8.1-5.4-12.1c-7.4,0.7-7.9,1.5-6,8.5c1.1,4.1,1.6,8.4,2,12.7
			c0.1,1-0.7,2.8-1.5,3.1c-1.2,0.4-3,0.1-3.9-0.7c-1.1-0.8-1.8-2.4-2.2-3.8c-1.6-5.1-2.9-10.3-4.4-15.5c-8.4,0.8-8.4,0.8-8.3,8.6
			c0.1,3.1,0.6,6.3,0.2,9.4c-0.2,1.7-2,3.3-3,4.9c-1.1-1-3-1.9-3.3-3.1c-1.1-4.5-1.6-9.1-2.6-13.6c-0.3-1.4-1.7-2.6-2.5-3.9
			c-1.1,1.2-2.7,2.2-3.2,3.6c-1.2,4-1.5,8.2-2.8,12.1c-0.5,1.6-2.9,2.6-4.4,3.8c-1-1.6-2.8-3.2-2.7-4.7c0.2-4.6,0.7-9.3,1.8-13.7
			c0.7-2.8-0.1-4.4-2.3-4.9c-1.5-0.3-3.9,0.2-4.8,1.2c-2.1,2.3-3.3,5.4-5.4,7.7c-1,1.2-3,1.6-4.5,2.4c-0.7-1.5-1.7-3-2-4.6
			c-0.2-1.4,0.1-3.1,0.7-4.3c1.6-3,3.7-5.8,5.3-8.9c0.7-1.4,0.8-3.2,1.2-4.8c-1.6-0.3-3.1-0.9-4.7-0.8c-2,0.1-3.9,1.4-5.8,1.2
			c-1.8-0.2-3.5-1.5-5.2-2.4c0.9-1.9,1.4-4.2,2.9-5.4c1.8-1.6,4.5-2,6.6-3.3c1.2-0.7,2.8-2.2,2.8-3.3c0-1.3-1.6-2.6-2.6-3.7
			c-1.9-2.1-3.8-4.1-5.8-6.1c2.7-0.3,5.5-0.4,8.2-0.9c1.6-0.3,3.6-0.8,4.6-2c0.7-0.9,0.3-3-0.2-4.4c-0.5-1.5-1.8-2.8-2.3-4.4
			c-0.4-1.3-0.6-3.7,0-4c1.3-0.6,3.3-0.8,4.5-0.2c2.2,1.1,3.9,2.8,5.6,4.1c8.3-1.4,2.3-8.1,5.1-12.7c2,1.2,3.8,2.6,5.7,3.4
			c1.6,0.6,3.6,1.1,5.1,0.6c1.3-0.4,2.2-2.3,3-3.7c0.8-1.3,1.2-2.8,1.8-4.3c1.4,0.7,3.3,1,4.2,2.1c2.6,3.4,5.6,3.5,8.2,1.3
			c1.5-2.1,3-4.1,4.5-6.2c1.7,1.6,3.4,3.2,5.1,4.8c1,0.9,2.2,2.6,3.1,2.5c1.3-0.2,2.6-1.6,3.7-2.6c1.4-1.2,2.6-2.6,3.9-3.9
			c1.2,1.3,2.4,2.6,3.6,3.8c1,1,2,2.7,3.2,2.8c1.3,0.1,3.7-0.8,4-1.8c0.5-1.5,0.1-3.8-0.9-5c-4.4-5.2-9.8-8.7-16.9-9.4
			c-11.5-1.1-22.8,0.2-33.5,4.3c-5.4,2.1-9.7,6.8-15.1,8.9c-7.2,2.7-11.2,8.5-15.7,13.8c-9,10.6-11.8,23.6-12.4,37
			c-0.8,18.1-1.2,36-8.4,53.2c-11.2,26.3-9.9,53.5-2.8,80.4c1.6,6.1,6.1,11.6,9.8,17c1,1.4,4.4,1.2,6.7,1.8c0.4-2,1.7-4.3,1.1-5.9
			c-3.1-8-0.8-14.7,4.4-20.7c3-3.5,2.2-5.8-0.7-8.7c-8.1-8.2-15.2-17.2-18.4-28.5c-0.7-2.6-0.5-5.4-0.8-8.1c0.8-0.2,1.6-0.4,2.3-0.6
			c1,1.8,2.3,3.6,2.9,5.5c2.2,8,5.8,15,11.5,21.2c8.1,8.7,16,17.7,23.7,26.9c5.2,6.2,9.8,13,15.1,19.1c3.9,4.5,8.8,7.6,15.2,7.4
			c6.6-0.3,9.4-4.4,5.8-9.9c-6.2-9.7-7.5-20.6-7.5-31.5c0-7.3,1.9-14.7,3.4-21.9C90.7,178,92.9,177.7,95.8,179.8z M191.8,209.8
			c0.7,1.5,1.5,3.6,2.6,5.3c5.6,8.6,11.6,17.1,21,21.9c2.4,1.3,5.9,0.5,8.9,0.6c-0.4-2.6-0.1-5.6-1.3-7.8
			c-4.3-7.8-5.8-16.1-5.4-24.9c0.4-6.5,1-13.1,1.5-19.1C210.3,193.6,201.2,201.6,191.8,209.8z M147,56.1c2.1-1.7,3.4-2.7,4.7-3.7
			c4.4-3.1,3.3-8.1,3.5-12.3c0-1.1-5.1-2.8-8-3.4c-5.3-1-6.8,1-5.2,6C143.4,47.1,145.2,51.2,147,56.1z M163.9,36.2
			c-2,3.5-3.9,6.3-5.1,9.3c-0.3,0.8,1.4,3.5,2.4,3.6c6.1,0.7,12-0.2,16.8-4.4c1.6-1.4,3.2-4,2.9-5.8c-0.2-1.6-3.1-2.7-4.9-4.2
			C172.3,42.3,170,42.7,163.9,36.2z M212.1,36.2c-4.2,1.5-5.2,4.1-1.4,7.3c3.2,2.6,7.3,4.4,11.4,5.4c2.8,0.6,6-0.8,9.1-1.4
			c-1.5-3.1-2.9-6.4-4.6-9.4c-0.5-0.8-1.9-1.2-2-1.2c-2.5,1.6-4.5,3.9-6.4,3.8C216.4,40.6,214.6,38.2,212.1,36.2z M242.4,59.3
			c1.6-5.8,3-10.5,4.1-15.4c0.5-2.4-0.2-4.8-3.5-4.5c-3,0.3-6.7-1.3-7.8,3.7C233.7,49.9,237.8,53.8,242.4,59.3z M195.1,123.3
			c3.3-1.1,6.5-1.9,9.5-3.3c1-0.5,1.3-2.5,1.9-3.8c-1.4-0.1-2.7-0.4-4.1-0.4c-5.1,0-10.2,0.1-15.3,0.1c-1.3,0-2.5,0-3.8,0
			c0.5,1.4,0.6,3.5,1.5,3.9C188,121.4,191.6,122.2,195.1,123.3z M195,59.2c-3.4,2.5-6.1,4.2-8.6,6.3c-0.5,0.4,0.1,2.2,0.2,3.3
			c0.9-0.4,2.1-0.5,2.7-1.2c3.2-3.5,7.9-3.3,10.7,0.3c0.5,0.6,1.8,0.7,2.8,1c0.3-0.9,1-2.3,0.7-2.5C200.8,64,198.1,61.8,195,59.2z
			 M200,33.2c-2.8-3-5.8-2.8-8.9-1.2c-0.4,0.2-0.2,1.6-0.3,2.4c2.8,0,5.5,0,8.3,0C199.3,34.4,199.5,33.9,200,33.2z"/>
		<linearGradient id="SVGID_1_" gradientUnits="userSpaceOnUse" x1="151.3813" y1="237.372" x2="104.048" y2="45.5942">
			<stop  offset="0" style="stop-color:#2B2B2B"/>
			<stop  offset="0.1943" style="stop-color:#343434"/>
			<stop  offset="0.4039" style="stop-color:#444444"/>
			<stop  offset="0.6484" style="stop-color:#626363"/>
			<stop  offset="0.9366" style="stop-color:#9B9B9B"/>
		</linearGradient>
		<path class="st0" d="M95.8,179.8c-3-2.1-5.2-1.8-5.7,1.3c-1.4,7.3-3.4,14.6-3.4,21.9c0.1,10.9,1.3,21.8,7.5,31.5
			c3.5,5.5,0.8,9.6-5.8,9.9c-6.3,0.2-11.3-2.9-15.2-7.4c-5.3-6.1-9.8-12.9-15.1-19.1c-7.7-9.1-15.5-18.1-23.7-26.9
			c-5.7-6.1-9.3-13.2-11.5-21.2c-0.5-1.9-1.9-3.7-2.9-5.5c-0.8,0.2-1.6,0.4-2.3,0.6c0.2,2.7,0.1,5.5,0.8,8.1
			c3.2,11.4,10.3,20.3,18.4,28.5c2.9,3,3.7,5.3,0.7,8.7c-5.2,6-7.5,12.7-4.4,20.7c0.6,1.6-0.7,3.9-1.1,5.9c-2.3-0.5-5.6-0.3-6.7-1.8
			c-3.8-5.3-8.2-10.8-9.8-17c-7.2-27-8.4-54.1,2.8-80.4c7.3-17.1,7.6-35.1,8.4-53.2c0.6-13.4,3.4-26.5,12.4-37
			c4.5-5.3,8.6-11,15.7-13.8c5.4-2.1,9.7-6.8,15.1-8.9c10.7-4.1,22-5.4,33.5-4.3c7.1,0.7,12.5,4.2,16.9,9.4c1,1.2,1.4,3.6,0.9,5
			c-0.3,1-2.7,2-4,1.8c-1.1-0.1-2.1-1.8-3.2-2.8c-1.2-1.2-2.4-2.5-3.6-3.8c-1.3,1.3-2.5,2.7-3.9,3.9c-1.2,1-2.4,2.4-3.7,2.6
			c-0.9,0.1-2.1-1.5-3.1-2.5c-1.7-1.6-3.4-3.2-5.1-4.8c-1.5,2.1-3,4.1-4.5,6.2c-2.6,2.3-5.6,2.2-8.2-1.3c-0.9-1.1-2.8-1.4-4.2-2.1
			c-0.6,1.4-1,2.9-1.8,4.3c-0.8,1.4-1.7,3.2-3,3.7c-1.5,0.5-3.5,0-5.1-0.6c-2-0.8-3.7-2.1-5.7-3.4c-2.8,4.6,3.2,11.3-5.1,12.7
			c-1.7-1.3-3.5-3.1-5.6-4.1c-1.2-0.6-3.2-0.4-4.5,0.2c-0.5,0.3-0.4,2.7,0,4c0.5,1.5,1.8,2.8,2.3,4.4c0.4,1.4,0.9,3.5,0.2,4.4
			c-0.9,1.2-2.9,1.7-4.6,2c-2.7,0.5-5.4,0.6-8.2,0.9c1.9,2,3.9,4,5.8,6.1c1,1.2,2.6,2.5,2.6,3.7c0,1.1-1.6,2.6-2.8,3.3
			c-2.1,1.3-4.8,1.7-6.6,3.3c-1.4,1.2-1.9,3.6-2.9,5.4c1.7,0.8,3.4,2.2,5.2,2.4c1.9,0.2,3.8-1,5.8-1.2c1.5-0.1,3.1,0.5,4.7,0.8
			c-0.4,1.6-0.4,3.4-1.2,4.8c-1.6,3-3.7,5.8-5.3,8.9c-0.7,1.2-1,2.9-0.7,4.3c0.3,1.6,1.3,3,2,4.6c1.5-0.8,3.5-1.2,4.5-2.4
			c2-2.4,3.3-5.5,5.4-7.7c1-1.1,3.3-1.6,4.8-1.2c2.3,0.5,3.1,2.1,2.3,4.9c-1.2,4.4-1.7,9.1-1.8,13.7c-0.1,1.5,1.7,3.1,2.7,4.7
			c1.5-1.3,3.8-2.2,4.4-3.8c1.3-3.9,1.7-8.1,2.8-12.1c0.4-1.4,2.1-2.4,3.2-3.6c0.9,1.3,2.2,2.5,2.5,3.9c1,4.5,1.5,9.1,2.6,13.6
			c0.3,1.2,2.1,2.1,3.3,3.1c1.1-1.6,2.8-3.2,3-4.9c0.4-3.1-0.1-6.3-0.2-9.4c-0.1-7.9-0.1-7.9,8.3-8.6c1.4,5.2,2.8,10.3,4.4,15.5
			c0.4,1.4,1.1,3,2.2,3.8c1,0.7,2.8,1,3.9,0.7c0.8-0.3,1.7-2.1,1.5-3.1c-0.5-4.3-0.9-8.6-2-12.7c-1.9-6.9-1.4-7.8,6-8.5
			c1.8,4,3.8,8,5.4,12.1c1.2,3.1,3.7,3.1,5.6,2c1.2-0.7,2-3.4,1.8-5.1c-0.4-2.7-1.5-5.4-2.7-8c-2.5-5.7-2.6-5.7,3.9-7.7
			c1.8,2.5,3.5,5.1,5.6,7.4c0.8,0.9,2.8,1.7,3.8,1.3c1-0.4,2.2-2.2,2.1-3.4c-0.2-2.8-1.1-5.5-1.5-8.2c-0.2-1.4-0.4-3.8,0.3-4.2
			c1.2-0.6,3.1-0.1,4.6,0c1.7,0.2,3.6,1.1,4.9,0.5c1-0.4,2-2.9,1.7-4.1c-1.2-4.6,0.7-7.6,3.9-10.3c1.4-1.2,2.4-2.7,3.5-4.2
			c4.1-5.3,8.9-8.1,16.1-7.8c6.9,0.3,13.2-2.4,17.8-8.3c0.9-1.2,4.4-1,6.5-0.6c1.1,0.2,2.3,2.3,2.6,3.7c0.8,4.1-0.4,6.9-4.5,9.5
			c-7.3,4.6-10.5,12.6-13.5,20.4c-3.5,8.8-6.6,17.8-5.1,27.5c2.3,15.7,20.9,30.3,39.9,16.5c9.5-6.9,12.1-17.9,9.6-29.6
			c-2.4-10.9-6.2-21.3-13.2-30.2c-1.5-1.9-3.3-3.9-5.4-5c-2.8-1.5-3.4-3.3-3.6-6.3c-0.3-4.8,1.1-7.7,6.7-7.9
			c6.1,7.6,14.5,10.7,24.5,10.8c2.2,0,5.3,2,6.5,4c6.9,11.4,10.2,24.1,11,37.3c2.6,44.3-16.9,78.3-50,105.8c-0.5,0.4-1.1,0.7-1.7,1
			c-0.3,0.1-0.6,0.1-1.5,0.3c6-10.6,11.9-20.9,17.8-31.3c-0.5-0.5-1.1-1.1-1.6-1.6c-1.4,0.8-3.4,1.3-4.1,2.5
			c-8,12.9-16.2,25.8-23.5,39.1c-3.5,6.4-5.1,13.9-7.4,21c-0.7,2.2-0.8,4.6-1.5,6.8c-1.5,4.9-5.6,6.2-9.7,3c-5-3.9-6.1-9.7-6.8-15.5
			c-1.9-14.6-1.9-29,1.7-43.4c0.3-1.1-0.6-2.5-1-3.8c-1.4,1.2-3.7,2.2-3.9,3.5c-1.1,9.9-2.3,19.8-2.5,29.7c-0.2,8.9,0.4,9.3-8.6,9.4
			c-14.6,0.1-29.1-0.5-43.7-0.7c-3.3,0-4.7-1.7-5.1-4.8C90.8,203.7,89.8,191.6,95.8,179.8z M175.3,61.7c-6.7,3-13.5,6-20.1,9.2
			c-1,0.5-1.5,2-2.2,3.1c1.2,0.2,2.5,0.9,3.5,0.5c4.7-1.9,9.3-4.3,13.9-6.2C173.4,66.9,175.1,64.9,175.3,61.7c0.5-1.5,1-3.1,1.5-4.6
			c-5.3-2.1-20.1,1.3-22.1,5.8c3.7-0.5,6.8-1.1,10-1.2C168.2,61.5,171.8,61.6,175.3,61.7z M214.8,62.2c-0.2,0.4-0.5,0.8-0.7,1.1
			c0.3,0.8,0.4,2.1,1,2.4c6,3.1,12,6,18.1,8.8c0.6,0.3,1.7-0.5,2.5-0.8c-0.6-1-0.8-2.6-1.7-3.1c-3.8-2-7.7-3.8-11.6-5.5
			C220,64.1,217.4,63.2,214.8,62.2z M234.8,62c-2.3-4.3-17.6-7.3-22.2-4.7C214.7,60.7,226.7,63.3,234.8,62z"/>
		
			<radialGradient id="SVGID_00000046328451234768965480000012910868514644726949_" cx="194.7692" cy="91.0537" r="16.4473" gradientTransform="matrix(1 0 0 4.0212 0 -275.0945)" gradientUnits="userSpaceOnUse">
			<stop  offset="2.395132e-02" style="stop-color:#69001C"/>
			<stop  offset="0.2733" style="stop-color:#6C001D"/>
			<stop  offset="0.4506" style="stop-color:#750120"/>
			<stop  offset="0.6056" style="stop-color:#850326"/>
			<stop  offset="0.7478" style="stop-color:#9B052E"/>
			<stop  offset="0.88" style="stop-color:#B70839"/>
			<stop  offset="1" style="stop-color:#D80B45"/>
		</radialGradient>
		<path style="fill:url(#SVGID_00000046328451234768965480000012910868514644726949_);" d="M215.2,93.2c0.4,4,1.3,12.5-3.7,18.8
			c-0.8,0.9-2.4,2.9-5.1,4.2c-2.1,1-3.4,0.9-10.9,0.8c-8-0.1-9.5,0-12.3-1c-1-0.4-3-1.1-4.7-2.5c-5.8-4.8-4.7-14.9-4.1-20.2
			c0.4-4.1,1.9-17.7,11.8-25c1.7-1.2,4.7-3.4,8.6-3.2c2.2,0.1,4.6,1,7.8,3.8C207.4,73,213.9,81.2,215.2,93.2z"/>
		
			<linearGradient id="SVGID_00000078009307174090201150000008934347867649965985_" gradientUnits="userSpaceOnUse" x1="200.1002" y1="215.2265" x2="232.2601" y2="210.1626">
			<stop  offset="0" style="stop-color:#2B2B2B"/>
			<stop  offset="0.3147" style="stop-color:#343434"/>
			<stop  offset="0.6543" style="stop-color:#444444"/>
			<stop  offset="0.9498" style="stop-color:#626363"/>
		</linearGradient>
		<path style="fill:url(#SVGID_00000078009307174090201150000008934347867649965985_);" d="M191.8,209.8
			c9.4-8.2,18.5-16.2,27.4-23.9c-0.5,6-1.1,12.5-1.5,19.1c-0.5,8.8,1.1,17.1,5.4,24.9c1.2,2.2,0.9,5.2,1.3,7.8
			c-3-0.2-6.5,0.6-8.9-0.6c-9.4-4.8-15.4-13.3-21-21.9C193.2,213.4,192.5,211.3,191.8,209.8z"/>
		
			<linearGradient id="SVGID_00000034803183383009854020000012346898182031481512_" gradientUnits="userSpaceOnUse" x1="151.8103" y1="48.3162" x2="141.8103" y2="42.3162">
			<stop  offset="0" style="stop-color:#2B2B2B"/>
			<stop  offset="0.1943" style="stop-color:#343434"/>
			<stop  offset="0.4039" style="stop-color:#444444"/>
			<stop  offset="0.6484" style="stop-color:#626363"/>
			<stop  offset="0.9366" style="stop-color:#9B9B9B"/>
		</linearGradient>
		<path style="fill:url(#SVGID_00000034803183383009854020000012346898182031481512_);" d="M147,56.1c-1.9-4.8-3.7-9-5.1-13.3
			c-1.6-5.1,0-7,5.2-6c2.9,0.5,8,2.3,8,3.4c-0.2,4.2,1,9.2-3.5,12.3C150.4,53.4,149.2,54.4,147,56.1z"/>
		<path class="st4" d="M163.9,36.2c6.2,6.5,8.4,6.1,12.1-1.4c1.8,1.4,4.7,2.6,4.9,4.2c0.3,1.8-1.3,4.4-2.9,5.8
			c-4.8,4.1-10.7,5-16.8,4.4c-1-0.1-2.7-2.8-2.4-3.6C159.9,42.4,161.9,39.6,163.9,36.2z"/>
		<path class="st4" d="M212.1,36.2c2.5,2,4.3,4.4,6.1,4.5c1.9,0.1,3.8-2.2,6.4-3.8c0.1,0.1,1.5,0.4,2,1.2c1.7,3,3.1,6.2,4.6,9.4
			c-3,0.5-6.3,2-9.1,1.4c-4-0.9-8.2-2.8-11.4-5.4C206.9,40.4,207.9,37.7,212.1,36.2z"/>
		
			<linearGradient id="SVGID_00000124149530081610149220000007578607215065735094_" gradientUnits="userSpaceOnUse" x1="238.0449" y1="51.3079" x2="248.2575" y2="40.4946">
			<stop  offset="0" style="stop-color:#2B2B2B"/>
			<stop  offset="0.1943" style="stop-color:#343434"/>
			<stop  offset="0.4039" style="stop-color:#444444"/>
			<stop  offset="0.6484" style="stop-color:#626363"/>
			<stop  offset="0.9366" style="stop-color:#9B9B9B"/>
		</linearGradient>
		<path style="fill:url(#SVGID_00000124149530081610149220000007578607215065735094_);" d="M242.4,59.3c-4.6-5.5-8.7-9.4-7.2-16.1
			c1.1-5.1,4.8-3.4,7.8-3.7c3.3-0.4,4,2.1,3.5,4.5C245.4,48.8,243.9,53.5,242.4,59.3z"/>
		<path class="st4" d="M195.1,123.3c-3.5-1.1-7.1-2-10.3-3.4c-0.9-0.4-1-2.6-1.5-3.9c1.3,0,2.5,0,3.8,0c5.1,0,10.2-0.1,15.3-0.1
			c1.4,0,2.7,0.2,4.1,0.4c-0.6,1.3-0.9,3.3-1.9,3.8C201.7,121.4,198.5,122.2,195.1,123.3z"/>
		<path class="st4" d="M195,59.2c3.1,2.6,5.8,4.8,8.4,7.2c0.3,0.3-0.4,1.7-0.7,2.5c-0.9-0.3-2.3-0.3-2.8-1
			c-2.8-3.7-7.5-3.8-10.7-0.3c-0.6,0.7-1.8,0.8-2.7,1.2c-0.1-1.1-0.7-2.8-0.2-3.3C188.9,63.4,191.6,61.6,195,59.2z"/>
		<path class="st6" d="M200,33.2c-0.5,0.7-0.7,1.2-0.9,1.2c-2.8,0-5.5,0-8.3,0c0.1-0.8-0.1-2.2,0.3-2.4
			C194.1,30.3,197.2,30.1,200,33.2z"/>
		<path d="M214.8,62.2c2.6,1,5.2,1.9,7.7,3.1c3.9,1.7,7.8,3.5,11.6,5.5c0.9,0.5,1.2,2,1.7,3.1c-0.8,0.3-1.9,1.1-2.5,0.8
			c-6.1-2.8-12.1-5.8-18.1-8.8c-0.6-0.3-0.7-1.6-1-2.4C214.4,63,214.6,62.6,214.8,62.2z"/>
		<path d="M234.8,62c-8.1,1.3-20-1.3-22.2-4.7C217.2,54.7,232.5,57.7,234.8,62z"/>
		<path d="M175.3,61.7c-0.2,3.3-1.9,5.2-4.9,6.5c-4.7,2-9.2,4.3-13.9,6.2c-0.9,0.4-2.3-0.3-3.5-0.5c0.7-1.1,1.2-2.6,2.2-3.1
			C161.8,67.7,168.6,64.7,175.3,61.7C175.3,61.7,175.3,61.7,175.3,61.7z"/>
		<path d="M175.3,61.7c-3.5,0-7.1-0.2-10.6,0c-3.2,0.2-6.3,0.8-10,1.2c2-4.5,16.8-7.9,22.1-5.8C176.2,58.6,175.7,60.1,175.3,61.7
			C175.3,61.7,175.3,61.7,175.3,61.7z"/>
	</g>
</g>
</svg>
